<svg xmlns="http://www.w3.org/2000/svg" width="1000" height="126" viewBox="0 0 1000 126" fill="none">
<path d="M62.6219 31.5547C62.6219 14.2622 76.6403 0.243774 93.9328 0.243774C111.225 0.243774 125.244 14.2622 125.244 31.5547C125.244 48.8473 111.225 62.8657 93.9328 62.8657C76.6403 62.8657 62.6219 48.8473 62.6219 31.5547Z" fill="#158D71"/>
<path d="M0 62.8657H62.6219V94.1767C62.6219 111.469 48.6035 125.488 31.3109 125.488C14.0184 125.488 0 111.469 0 94.1767V62.8657Z" fill="#158D71"/>
<path d="M62.6219 94.1767C62.6219 76.8841 76.6403 62.8657 93.9328 62.8657C111.225 62.8657 125.244 76.8841 125.244 94.1767V125.488H62.6219V94.1767Z" fill="white"/>
<path d="M0 31.5547C0 14.2622 14.0184 0.243774 31.3109 0.243774C48.6035 0.243774 62.6219 14.2622 62.6219 31.5547C62.6219 48.8473 48.6035 62.8657 31.3109 62.8657C14.0184 62.8657 0 48.8473 0 31.5547Z" fill="white"/>
<path d="M214.542 79.2375C214.417 91.8871 204.648 96.7716 196.507 96.7716C188.367 96.7716 182.48 90.5094 182.48 80.6152V47.0498H171.584V80.8657C171.459 97.2726 180.476 107.042 195.13 107.042C201.642 107.042 211.036 103.785 214.542 96.3959V105.539H225.439V47.0498H214.542V79.2375Z" fill="white"/>
<path d="M260.907 107.042C273.056 107.042 283.576 100.153 283.576 89.257C283.576 82.6191 280.445 75.3549 268.297 72.3491L259.655 70.2199C255.897 69.3432 252.14 67.2141 252.14 63.2063C252.14 58.6975 255.897 55.0654 261.533 55.0654C266.167 55.0654 270.801 58.0713 270.927 62.5801H281.447C281.447 50.8072 271.177 45.5469 261.283 45.5469C249.51 45.5469 241.244 53.1868 241.244 62.8306C241.244 72.2238 246.88 76.9831 256.649 79.6132L264.664 81.4919C269.298 82.4938 272.68 84.7482 272.68 89.1317C272.68 93.891 268.297 97.5231 260.907 97.5231C253.768 97.5231 249.385 93.39 249.259 88.3803H239.115C239.616 100.404 250.387 107.042 260.907 107.042Z" fill="white"/>
<path d="M352.782 76.1064C352.782 57.5703 340.383 45.5469 323.726 45.5469C307.068 45.5469 293.667 57.5703 293.667 76.1064C293.667 94.6425 307.068 107.042 323.726 107.042C334.998 107.042 345.518 101.531 350.528 91.3861L341.135 87.6288C337.753 93.5153 331.24 96.7716 324.101 96.7716C314.082 96.7716 306.567 91.3861 304.939 80.9909H352.532C352.657 79.3627 352.782 77.7346 352.782 76.1064ZM305.064 71.5976C306.818 61.0771 313.831 55.8169 323.726 55.8169C333.369 55.8169 340.508 61.5781 341.886 71.5976H305.064Z" fill="white"/>
<path d="M394.435 45.5469C386.669 45.5469 381.034 50.0557 378.028 60.3257V47.0498H367.006V105.539H378.028V84.122C378.028 68.717 382.662 56.0674 394.309 56.0674C396.564 56.0674 399.695 56.5684 402.826 58.0713L404.579 47.8013C402.826 46.6741 398.568 45.5469 394.435 45.5469Z" fill="white"/>
<path d="M452.959 32.772C457.217 32.772 460.724 29.641 460.724 25.5079C460.724 21.3749 457.217 18.2438 452.959 18.2438C448.826 18.2438 445.319 21.3749 445.319 25.5079C445.319 29.641 448.826 32.772 452.959 32.772ZM458.469 105.539V47.0498H447.573V105.539H458.469Z" fill="white"/>
<path d="M507.099 45.5469C500.712 45.5469 491.193 48.8033 487.686 55.9422V47.0498H476.79V105.539H487.686V73.852C487.686 61.2024 497.455 56.3179 505.596 56.3179C513.737 56.3179 519.749 62.5801 519.749 72.3491V105.539H530.645V71.7229C530.77 55.3159 521.627 45.5469 507.099 45.5469Z" fill="white"/>
<path d="M562.875 47.0498V25.0069H551.979V47.0498H541.458V56.4431H551.979V105.539H562.875V56.4431H575.524V47.0498H562.875Z" fill="white"/>
<path d="M641.092 76.1064C641.092 57.5703 628.693 45.5469 612.036 45.5469C595.378 45.5469 581.977 57.5703 581.977 76.1064C581.977 94.6425 595.378 107.042 612.036 107.042C623.308 107.042 633.828 101.531 638.838 91.3861L629.445 87.6288C626.063 93.5153 619.551 96.7716 612.412 96.7716C602.392 96.7716 594.877 91.3861 593.249 80.9909H640.842C640.967 79.3627 641.092 77.7346 641.092 76.1064ZM593.375 71.5976C595.128 61.0771 602.142 55.8169 612.036 55.8169C621.68 55.8169 628.819 61.5781 630.196 71.5976H593.375Z" fill="white"/>
<path d="M682.745 45.5469C674.98 45.5469 669.344 50.0557 666.338 60.3257V47.0498H655.316V105.539H666.338V84.122C666.338 68.717 670.972 56.0674 682.62 56.0674C684.874 56.0674 688.005 56.5684 691.136 58.0713L692.89 47.8013C691.136 46.6741 686.878 45.5469 682.745 45.5469Z" fill="white"/>
<path d="M725.793 91.6366L707.758 47.0498H696.111L720.408 105.539H731.054L755.476 47.0498H743.703L725.793 91.6366Z" fill="white"/>
<path d="M771.621 32.772C775.879 32.772 779.386 29.641 779.386 25.5079C779.386 21.3749 775.879 18.2438 771.621 18.2438C767.488 18.2438 763.981 21.3749 763.981 25.5079C763.981 29.641 767.488 32.772 771.621 32.772ZM777.132 105.539V47.0498H766.235V105.539H777.132Z" fill="white"/>
<path d="M850.685 76.1064C850.685 57.5703 838.286 45.5469 821.628 45.5469C804.971 45.5469 791.57 57.5703 791.57 76.1064C791.57 94.6425 804.971 107.042 821.628 107.042C832.9 107.042 843.421 101.531 848.431 91.3861L839.037 87.6288C835.656 93.5153 829.143 96.7716 822.004 96.7716C811.985 96.7716 804.47 91.3861 802.842 80.9909H850.434C850.56 79.3627 850.685 77.7346 850.685 76.1064ZM802.967 71.5976C804.72 61.0771 811.734 55.8169 821.628 55.8169C831.272 55.8169 838.411 61.5781 839.789 71.5976H802.967Z" fill="white"/>
<path d="M923.544 88.6308L908.514 47.0498H897.869L882.965 88.6308L868.061 47.0498H856.288L878.581 105.539H887.599L903.129 62.0791L919.285 105.539H928.428L950.22 47.0498H938.448L923.544 88.6308Z" fill="white"/>
<path d="M977.331 107.042C989.479 107.042 1000 100.153 1000 89.257C1000 82.6191 996.869 75.3549 984.72 72.3491L976.078 70.2199C972.321 69.3432 968.564 67.2141 968.564 63.2063C968.564 58.6975 972.321 55.0654 977.957 55.0654C982.591 55.0654 987.225 58.0713 987.35 62.5801H997.871C997.871 50.8072 987.601 45.5469 977.707 45.5469C965.934 45.5469 957.668 53.1868 957.668 62.8306C957.668 72.2238 963.304 76.9831 973.073 79.6132L981.088 81.4919C985.722 82.4938 989.104 84.7482 989.104 89.1317C989.104 93.891 984.72 97.5231 977.331 97.5231C970.192 97.5231 965.808 93.39 965.683 88.3803H955.538C956.039 100.404 966.81 107.042 977.331 107.042Z" fill="white"/>
</svg>
