<svg width="328" height="83" viewBox="0 0 328 83" fill="none" xmlns="http://www.w3.org/2000/svg">
<rect width="328" height="83" fill="white"/>
<path d="M25.1305 35.122C22.0305 35.122 19.6125 34.2643 17.8765 32.549C16.1612 30.8337 15.3035 28.3847 15.3035 25.202V13.05H20.3255V25.016C20.3255 28.9013 21.9375 30.844 25.1615 30.844C26.7322 30.844 27.9308 30.379 28.7575 29.449C29.5842 28.4983 29.9975 27.0207 29.9975 25.016V13.05H34.9575V25.202C34.9575 28.3847 34.0895 30.8337 32.3535 32.549C30.6382 34.2643 28.2305 35.122 25.1305 35.122ZM47.0502 35.122C45.3348 35.122 43.6712 34.8947 42.0592 34.44C40.4678 33.9647 39.1865 33.355 38.2152 32.611L39.9202 28.829C40.8502 29.511 41.9558 30.0587 43.2372 30.472C44.5185 30.8853 45.7998 31.092 47.0812 31.092C48.5072 31.092 49.5612 30.8853 50.2432 30.472C50.9252 30.038 51.2662 29.4697 51.2662 28.767C51.2662 28.2503 51.0595 27.8267 50.6462 27.496C50.2535 27.1447 49.7368 26.8657 49.0962 26.659C48.4762 26.4523 47.6288 26.225 46.5542 25.977C44.9008 25.5843 43.5472 25.1917 42.4932 24.799C41.4392 24.4063 40.5298 23.776 39.7652 22.908C39.0212 22.04 38.6492 20.8827 38.6492 19.436C38.6492 18.1753 38.9902 17.0387 39.6722 16.026C40.3542 14.9927 41.3772 14.1763 42.7412 13.577C44.1258 12.9777 45.8102 12.678 47.7942 12.678C49.1788 12.678 50.5325 12.8433 51.8552 13.174C53.1778 13.5047 54.3352 13.98 55.3272 14.6L53.7772 18.413C51.7725 17.2763 49.7678 16.708 47.7632 16.708C46.3578 16.708 45.3142 16.9353 44.6322 17.39C43.9708 17.8447 43.6402 18.444 43.6402 19.188C43.6402 19.932 44.0225 20.49 44.7872 20.862C45.5725 21.2133 46.7608 21.5647 48.3522 21.916C50.0055 22.3087 51.3592 22.7013 52.4132 23.094C53.4672 23.4867 54.3662 24.1067 55.1102 24.954C55.8748 25.8013 56.2572 26.9483 56.2572 28.395C56.2572 29.635 55.9058 30.7717 55.2032 31.805C54.5212 32.8177 53.4878 33.6237 52.1032 34.223C50.7185 34.8223 49.0342 35.122 47.0502 35.122ZM76.4907 30.72V34.75H59.6887V13.05H76.0877V17.08H64.6797V21.792H74.7547V25.698H64.6797V30.72H76.4907ZM94.3126 34.75L90.1276 28.705H89.8796H85.5086V34.75H80.4866V13.05H89.8796C91.8016 13.05 93.4652 13.3703 94.8706 14.011C96.2966 14.6517 97.3919 15.561 98.1566 16.739C98.9212 17.917 99.3036 19.312 99.3036 20.924C99.3036 22.536 98.9109 23.931 98.1256 25.109C97.3609 26.2663 96.2656 27.155 94.8396 27.775L99.7066 34.75H94.3126ZM94.2196 20.924C94.2196 19.7047 93.8269 18.7747 93.0416 18.134C92.2562 17.4727 91.1092 17.142 89.6006 17.142H85.5086V24.706H89.6006C91.1092 24.706 92.2562 24.3753 93.0416 23.714C93.8269 23.0527 94.2196 22.1227 94.2196 20.924ZM112.062 13.05H117.084V34.75H112.062V13.05ZM142.136 13.05V34.75H138.013L127.194 21.575V34.75H122.234V13.05H126.388L137.176 26.225V13.05H142.136ZM151.765 17.142H144.821V13.05H163.731V17.142H156.787V34.75H151.765V17.142ZM183.235 30.72V34.75H166.433V13.05H182.832V17.08H171.424V21.792H181.499V25.698H171.424V30.72H183.235ZM201.057 34.75L196.872 28.705H196.624H192.253V34.75H187.231V13.05H196.624C198.546 13.05 200.209 13.3703 201.615 14.011C203.041 14.6517 204.136 15.561 204.901 16.739C205.665 17.917 206.048 19.312 206.048 20.924C206.048 22.536 205.655 23.931 204.87 25.109C204.105 26.2663 203.01 27.155 201.584 27.775L206.451 34.75H201.057ZM200.964 20.924C200.964 19.7047 200.571 18.7747 199.786 18.134C199 17.4727 197.853 17.142 196.345 17.142H192.253V24.706H196.345C197.853 24.706 199 24.3753 199.786 23.714C200.571 23.0527 200.964 22.1227 200.964 20.924ZM230.89 13.05L221.497 34.75H216.537L207.175 13.05H212.6L219.203 28.55L225.899 13.05H230.89ZM232.701 13.05H237.723V34.75H232.701V13.05ZM259.675 30.72V34.75H242.873V13.05H259.272V17.08H247.864V21.792H257.939V25.698H247.864V30.72H259.675ZM296.166 13.05L289.067 34.75H283.673L278.899 20.056L273.97 34.75H268.607L261.477 13.05H266.685L271.583 28.302L276.698 13.05H281.348L286.308 28.426L291.361 13.05H296.166ZM306.1 35.122C304.385 35.122 302.721 34.8947 301.109 34.44C299.518 33.9647 298.236 33.355 297.265 32.611L298.97 28.829C299.9 29.511 301.006 30.0587 302.287 30.472C303.568 30.8853 304.85 31.092 306.131 31.092C307.557 31.092 308.611 30.8853 309.293 30.472C309.975 30.038 310.316 29.4697 310.316 28.767C310.316 28.2503 310.109 27.8267 309.696 27.496C309.303 27.1447 308.787 26.8657 308.146 26.659C307.526 26.4523 306.679 26.225 305.604 25.977C303.951 25.5843 302.597 25.1917 301.543 24.799C300.489 24.4063 299.58 23.776 298.815 22.908C298.071 22.04 297.699 20.8827 297.699 19.436C297.699 18.1753 298.04 17.0387 298.722 16.026C299.404 14.9927 300.427 14.1763 301.791 13.577C303.176 12.9777 304.86 12.678 306.844 12.678C308.229 12.678 309.582 12.8433 310.905 13.174C312.228 13.5047 313.385 13.98 314.377 14.6L312.827 18.413C310.822 17.2763 308.818 16.708 306.813 16.708C305.408 16.708 304.364 16.9353 303.682 17.39C303.021 17.8447 302.69 18.444 302.69 19.188C302.69 19.932 303.072 20.49 303.837 20.862C304.622 21.2133 305.811 21.5647 307.402 21.916C309.055 22.3087 310.409 22.7013 311.463 23.094C312.517 23.4867 313.416 24.1067 314.16 24.954C314.925 25.8013 315.307 26.9483 315.307 28.395C315.307 29.635 314.956 30.7717 314.253 31.805C313.571 32.8177 312.538 33.6237 311.153 34.223C309.768 34.8223 308.084 35.122 306.1 35.122Z" fill="#6DBD63"/>
<path d="M73.7213 51.2903H80.5245C82.291 51.2903 83.8505 51.6484 85.2032 52.3645C86.5559 53.0647 87.6062 54.0514 88.3542 55.3245C89.1022 56.5817 89.4761 58.0219 89.4761 59.6452C89.4761 61.2684 89.1022 62.7166 88.3542 63.9897C87.6062 65.2469 86.5559 66.2335 85.2032 66.9497C83.8505 67.6499 82.291 68 80.5245 68H73.7213V51.2903ZM80.429 66.4723C81.8931 66.4723 83.1742 66.1858 84.2723 65.6129C85.3703 65.0241 86.2217 64.2204 86.8265 63.2019C87.4312 62.1675 87.7335 60.9819 87.7335 59.6452C87.7335 58.3084 87.4312 57.1308 86.8265 56.1123C86.2217 55.0778 85.3703 54.2742 84.2723 53.7013C83.1742 53.1125 81.8931 52.8181 80.429 52.8181H75.4877V66.4723H80.429ZM104.018 62.2471H93.5144C93.6099 63.552 94.1112 64.6103 95.0183 65.4219C95.9254 66.2176 97.0712 66.6155 98.4557 66.6155C99.2355 66.6155 99.9516 66.4802 100.604 66.2097C101.257 65.9232 101.822 65.5095 102.299 64.9684L103.254 66.0665C102.697 66.7348 101.997 67.2441 101.153 67.5942C100.326 67.9443 99.4106 68.1194 98.408 68.1194C97.1189 68.1194 95.9731 67.8488 94.9706 67.3077C93.9839 66.7508 93.2121 65.9869 92.6551 65.0161C92.0981 64.0454 91.8196 62.9473 91.8196 61.7219C91.8196 60.4966 92.0822 59.3985 92.6073 58.4277C93.1484 57.457 93.8804 56.7011 94.8035 56.16C95.7424 55.6189 96.7927 55.3484 97.9544 55.3484C99.1161 55.3484 100.159 55.6189 101.082 56.16C102.005 56.7011 102.729 57.457 103.254 58.4277C103.779 59.3826 104.042 60.4806 104.042 61.7219L104.018 62.2471ZM97.9544 56.8045C96.745 56.8045 95.7265 57.1944 94.8989 57.9742C94.0873 58.7381 93.6258 59.7406 93.5144 60.9819H102.418C102.307 59.7406 101.837 58.7381 101.01 57.9742C100.198 57.1944 99.1798 56.8045 97.9544 56.8045ZM110.857 68.1194C109.839 68.1194 108.86 67.9761 107.921 67.6897C106.998 67.3873 106.274 67.0133 105.749 66.5677L106.513 65.231C107.038 65.6447 107.698 65.9869 108.494 66.2574C109.29 66.512 110.117 66.6394 110.976 66.6394C112.122 66.6394 112.966 66.4643 113.507 66.1142C114.064 65.7482 114.342 65.2389 114.342 64.5865C114.342 64.1249 114.191 63.7669 113.889 63.5123C113.586 63.2417 113.204 63.0428 112.743 62.9155C112.281 62.7723 111.669 62.637 110.905 62.5097C109.886 62.3187 109.067 62.1277 108.446 61.9368C107.825 61.7299 107.292 61.3877 106.847 60.9103C106.417 60.4329 106.202 59.7725 106.202 58.929C106.202 57.8787 106.64 57.0194 107.515 56.351C108.39 55.6826 109.608 55.3484 111.167 55.3484C111.979 55.3484 112.791 55.4598 113.602 55.6826C114.414 55.8895 115.082 56.168 115.607 56.5181L114.867 57.8787C113.833 57.1626 112.6 56.8045 111.167 56.8045C110.085 56.8045 109.266 56.9955 108.709 57.3774C108.168 57.7594 107.897 58.2606 107.897 58.8813C107.897 59.3587 108.048 59.7406 108.351 60.0271C108.669 60.3135 109.059 60.5284 109.52 60.6716C109.982 60.7989 110.618 60.9342 111.43 61.0774C112.433 61.2684 113.236 61.4594 113.841 61.6503C114.446 61.8413 114.963 62.1675 115.393 62.629C115.822 63.0905 116.037 63.7271 116.037 64.5387C116.037 65.6368 115.576 66.512 114.653 67.1645C113.745 67.8011 112.48 68.1194 110.857 68.1194ZM119.17 55.4439H120.865V68H119.17V55.4439ZM120.03 52.6987C119.68 52.6987 119.385 52.5794 119.146 52.3406C118.908 52.1019 118.788 51.8155 118.788 51.4813C118.788 51.163 118.908 50.8845 119.146 50.6458C119.385 50.4071 119.68 50.2877 120.03 50.2877C120.38 50.2877 120.674 50.4071 120.913 50.6458C121.152 50.8686 121.271 51.1391 121.271 51.4574C121.271 51.8075 121.152 52.1019 120.913 52.3406C120.674 52.5794 120.38 52.6987 120.03 52.6987ZM137.206 55.4439V66.4723C137.206 68.6047 136.681 70.1802 135.631 71.1987C134.596 72.2331 133.029 72.7503 130.928 72.7503C129.766 72.7503 128.66 72.5753 127.61 72.2252C126.576 71.891 125.732 71.4215 125.08 70.8168L125.939 69.5277C126.544 70.0688 127.276 70.4905 128.135 70.7929C129.01 71.0953 129.925 71.2465 130.88 71.2465C132.472 71.2465 133.641 70.8725 134.389 70.1245C135.137 69.3925 135.511 68.2467 135.511 66.6871V65.0877C134.986 65.8834 134.294 66.4882 133.435 66.9019C132.591 67.3157 131.652 67.5226 130.618 67.5226C129.44 67.5226 128.366 67.268 127.395 66.7587C126.44 66.2335 125.684 65.5095 125.127 64.5865C124.586 63.6475 124.316 62.5892 124.316 61.4116C124.316 60.234 124.586 59.1837 125.127 58.2606C125.684 57.3376 126.44 56.6215 127.395 56.1123C128.35 55.603 129.424 55.3484 130.618 55.3484C131.684 55.3484 132.647 55.5632 133.506 55.9929C134.365 56.4226 135.058 57.0432 135.583 57.8548V55.4439H137.206ZM130.785 66.0187C131.692 66.0187 132.512 65.8277 133.244 65.4458C133.976 65.048 134.541 64.4989 134.938 63.7987C135.352 63.0985 135.559 62.3028 135.559 61.4116C135.559 60.5204 135.352 59.7327 134.938 59.0484C134.541 58.3482 133.976 57.8071 133.244 57.4252C132.527 57.0273 131.708 56.8284 130.785 56.8284C129.878 56.8284 129.058 57.0194 128.326 57.4013C127.61 57.7832 127.045 58.3243 126.631 59.0245C126.233 59.7247 126.035 60.5204 126.035 61.4116C126.035 62.3028 126.233 63.0985 126.631 63.7987C127.045 64.4989 127.61 65.048 128.326 65.4458C129.058 65.8277 129.878 66.0187 130.785 66.0187ZM148.343 55.3484C149.919 55.3484 151.168 55.8099 152.091 56.7329C153.03 57.64 153.499 58.9688 153.499 60.7194V68H151.804V60.8865C151.804 59.5815 151.478 58.5869 150.826 57.9026C150.173 57.2183 149.242 56.8761 148.033 56.8761C146.68 56.8761 145.606 57.2819 144.81 58.0935C144.03 58.8892 143.64 59.9953 143.64 61.4116V68H141.946V55.4439H143.569V57.7594C144.03 56.9955 144.667 56.4067 145.479 55.9929C146.306 55.5632 147.261 55.3484 148.343 55.3484ZM169.313 68.1432C168.072 68.1432 166.878 67.9443 165.732 67.5465C164.603 67.1486 163.727 66.6234 163.107 65.971L163.799 64.6103C164.404 65.2151 165.207 65.7084 166.21 66.0903C167.212 66.4563 168.247 66.6394 169.313 66.6394C170.809 66.6394 171.931 66.3688 172.679 65.8277C173.427 65.2708 173.801 64.5546 173.801 63.6794C173.801 63.011 173.594 62.4778 173.18 62.08C172.782 61.6822 172.289 61.3798 171.7 61.1729C171.111 60.9501 170.292 60.7114 169.242 60.4568C167.984 60.1385 166.982 59.8361 166.234 59.5497C165.486 59.2473 164.841 58.7938 164.3 58.189C163.775 57.5843 163.512 56.7647 163.512 55.7303C163.512 54.8869 163.735 54.123 164.181 53.4387C164.626 52.7385 165.311 52.1815 166.234 51.7677C167.157 51.354 168.303 51.1471 169.671 51.1471C170.626 51.1471 171.557 51.2824 172.464 51.5529C173.387 51.8075 174.183 52.1656 174.851 52.6271L174.254 54.0355C173.554 53.574 172.806 53.2318 172.011 53.009C171.215 52.7703 170.435 52.651 169.671 52.651C168.207 52.651 167.101 52.9374 166.353 53.5103C165.621 54.0673 165.255 54.7914 165.255 55.6826C165.255 56.351 165.454 56.892 165.852 57.3058C166.266 57.7037 166.775 58.014 167.38 58.2368C168 58.4437 168.828 58.6744 169.862 58.929C171.088 59.2314 172.074 59.5338 172.822 59.8361C173.586 60.1226 174.231 60.5682 174.756 61.1729C175.281 61.7617 175.543 62.5654 175.543 63.5839C175.543 64.4273 175.313 65.1991 174.851 65.8994C174.406 66.5837 173.713 67.1327 172.774 67.5465C171.836 67.9443 170.682 68.1432 169.313 68.1432ZM189.352 55.4439L183.074 69.5039C182.565 70.6815 181.976 71.517 181.308 72.0103C180.639 72.5037 179.836 72.7503 178.897 72.7503C178.292 72.7503 177.727 72.6548 177.202 72.4639C176.677 72.2729 176.223 71.9865 175.841 71.6045L176.629 70.3394C177.265 70.9759 178.029 71.2942 178.92 71.2942C179.493 71.2942 179.979 71.1351 180.377 70.8168C180.79 70.4985 181.172 69.9574 181.522 69.1935L182.071 67.9761L176.462 55.4439H178.228L182.955 66.1142L187.681 55.4439H189.352ZM194.965 68.1194C193.946 68.1194 192.968 67.9761 192.029 67.6897C191.106 67.3873 190.382 67.0133 189.857 66.5677L190.62 65.231C191.146 65.6447 191.806 65.9869 192.602 66.2574C193.397 66.512 194.225 66.6394 195.084 66.6394C196.23 66.6394 197.074 66.4643 197.615 66.1142C198.172 65.7482 198.45 65.2389 198.45 64.5865C198.45 64.1249 198.299 63.7669 197.997 63.5123C197.694 63.2417 197.312 63.0428 196.851 62.9155C196.389 62.7723 195.777 62.637 195.013 62.5097C193.994 62.3187 193.175 62.1277 192.554 61.9368C191.933 61.7299 191.4 61.3877 190.955 60.9103C190.525 60.4329 190.31 59.7725 190.31 58.929C190.31 57.8787 190.748 57.0194 191.623 56.351C192.498 55.6826 193.716 55.3484 195.275 55.3484C196.087 55.3484 196.898 55.4598 197.71 55.6826C198.522 55.8895 199.19 56.168 199.715 56.5181L198.975 57.8787C197.941 57.1626 196.707 56.8045 195.275 56.8045C194.193 56.8045 193.374 56.9955 192.817 57.3774C192.275 57.7594 192.005 58.2606 192.005 58.8813C192.005 59.3587 192.156 59.7406 192.458 60.0271C192.777 60.3135 193.167 60.5284 193.628 60.6716C194.09 60.7989 194.726 60.9342 195.538 61.0774C196.54 61.2684 197.344 61.4594 197.949 61.6503C198.554 61.8413 199.071 62.1675 199.5 62.629C199.93 63.0905 200.145 63.7271 200.145 64.5387C200.145 65.6368 199.683 66.512 198.76 67.1645C197.853 67.8011 196.588 68.1194 194.965 68.1194ZM209.89 67.2361C209.572 67.5226 209.174 67.7454 208.697 67.9045C208.235 68.0477 207.75 68.1194 207.241 68.1194C206.063 68.1194 205.156 67.8011 204.519 67.1645C203.883 66.528 203.565 65.6288 203.565 64.4671V56.8761H201.321V55.4439H203.565V52.6987H205.259V55.4439H209.079V56.8761H205.259V64.3716C205.259 65.1196 205.442 65.6925 205.808 66.0903C206.19 66.4723 206.732 66.6632 207.432 66.6632C207.782 66.6632 208.116 66.6075 208.434 66.4961C208.768 66.3847 209.055 66.2256 209.294 66.0187L209.89 67.2361ZM223.466 62.2471H212.963C213.058 63.552 213.559 64.6103 214.466 65.4219C215.373 66.2176 216.519 66.6155 217.904 66.6155C218.684 66.6155 219.4 66.4802 220.052 66.2097C220.705 65.9232 221.27 65.5095 221.747 64.9684L222.702 66.0665C222.145 66.7348 221.445 67.2441 220.601 67.5942C219.774 67.9443 218.859 68.1194 217.856 68.1194C216.567 68.1194 215.421 67.8488 214.419 67.3077C213.432 66.7508 212.66 65.9869 212.103 65.0161C211.546 64.0454 211.268 62.9473 211.268 61.7219C211.268 60.4966 211.53 59.3985 212.055 58.4277C212.596 57.457 213.329 56.7011 214.252 56.16C215.19 55.6189 216.241 55.3484 217.403 55.3484C218.564 55.3484 219.607 55.6189 220.53 56.16C221.453 56.7011 222.177 57.457 222.702 58.4277C223.227 59.3826 223.49 60.4806 223.49 61.7219L223.466 62.2471ZM217.403 56.8045C216.193 56.8045 215.175 57.1944 214.347 57.9742C213.535 58.7381 213.074 59.7406 212.963 60.9819H221.866C221.755 59.7406 221.286 58.7381 220.458 57.9742C219.646 57.1944 218.628 56.8045 217.403 56.8045ZM242.599 55.3484C244.174 55.3484 245.408 55.8019 246.299 56.709C247.206 57.6161 247.659 58.9529 247.659 60.7194V68H245.964V60.8865C245.964 59.5815 245.646 58.5869 245.01 57.9026C244.389 57.2183 243.506 56.8761 242.36 56.8761C241.055 56.8761 240.029 57.2819 239.281 58.0935C238.533 58.8892 238.159 59.9953 238.159 61.4116V68H236.464V60.8865C236.464 59.5815 236.146 58.5869 235.509 57.9026C234.888 57.2183 233.997 56.8761 232.835 56.8761C231.546 56.8761 230.52 57.2819 229.756 58.0935C229.008 58.8892 228.634 59.9953 228.634 61.4116V68H226.939V55.4439H228.563V57.7355C229.008 56.9716 229.629 56.3828 230.424 55.969C231.22 55.5553 232.135 55.3484 233.17 55.3484C234.22 55.3484 235.127 55.5712 235.891 56.0168C236.671 56.4624 237.252 57.1228 237.634 57.9981C238.095 57.1705 238.755 56.526 239.615 56.0645C240.49 55.5871 241.485 55.3484 242.599 55.3484Z" fill="#6D6D6D"/>
</svg>
