<svg xmlns="http://www.w3.org/2000/svg" width="350" height="44" viewBox="0 0 350 44" fill="none">
<path d="M21.9177 10.9588C21.9177 4.90644 26.8241 0 32.8765 0V0C38.9289 0 43.8353 4.90644 43.8353 10.9588V10.9588C43.8353 17.0112 38.9289 21.9177 32.8765 21.9177V21.9177C26.8241 21.9177 21.9177 17.0112 21.9177 10.9588V10.9588Z" fill="#158D71"/>
<path d="M0 21.9177H21.9177V32.8765C21.9177 38.9289 17.0112 43.8353 10.9588 43.8353V43.8353C4.90644 43.8353 0 38.9289 0 32.8765V21.9177Z" fill="#158D71"/>
<path d="M21.9177 32.8765C21.9177 26.8241 26.8241 21.9177 32.8765 21.9177V21.9177C38.9289 21.9177 43.8353 26.8241 43.8353 32.8765V43.8353H21.9177V32.8765Z" fill="#011936"/>
<path d="M0 10.9588C0 4.90644 4.90644 0 10.9588 0V0C17.0112 0 21.9177 4.90644 21.9177 10.9588V10.9588C21.9177 17.0112 17.0112 21.9177 10.9588 21.9177V21.9177C4.90644 21.9177 0 17.0112 0 10.9588V10.9588Z" fill="#011936"/>
<path d="M75.0899 27.6478C75.046 32.0752 71.6269 33.7847 68.7776 33.7847C65.9283 33.7847 63.868 31.593 63.868 28.13V16.3821H60.0543V28.2176C60.0105 33.9601 63.1667 37.3792 68.2954 37.3792C70.5748 37.3792 73.8625 36.2395 75.0899 33.6532V36.8532H78.9035V16.3821H75.0899V27.6478Z" fill="black"/>
<path d="M91.3175 37.3792C95.5695 37.3792 99.2517 34.9683 99.2517 31.1546C99.2517 28.8313 98.1558 26.2889 93.9038 25.2368L90.8791 24.4916C89.5641 24.1848 88.249 23.4396 88.249 22.0369C88.249 20.4588 89.5641 19.1876 91.5367 19.1876C93.1586 19.1876 94.7805 20.2396 94.8243 21.8177H98.5065C98.5065 17.6972 94.912 15.8561 91.449 15.8561C87.3285 15.8561 84.4353 18.53 84.4353 21.9054C84.4353 25.193 86.4079 26.8588 89.8271 27.7793L92.6325 28.4368C94.2545 28.7875 95.438 29.5765 95.438 31.1108C95.438 32.7765 93.9038 34.0477 91.3175 34.0477C88.8189 34.0477 87.2846 32.6012 87.2408 30.8478H83.6901C83.8655 35.056 87.6353 37.3792 91.3175 37.3792Z" fill="black"/>
<path d="M123.474 26.5519C123.474 20.0643 119.134 15.8561 113.304 15.8561C107.474 15.8561 102.784 20.0643 102.784 26.5519C102.784 33.0395 107.474 37.3792 113.304 37.3792C117.249 37.3792 120.931 35.4505 122.685 31.8998L119.397 30.5848C118.214 32.645 115.934 33.7847 113.435 33.7847C109.929 33.7847 107.299 31.8998 106.729 28.2615H123.386C123.43 27.6916 123.474 27.1218 123.474 26.5519ZM106.773 24.9738C107.386 21.2917 109.841 19.4506 113.304 19.4506C116.679 19.4506 119.178 21.467 119.66 24.9738H106.773Z" fill="black"/>
<path d="M138.052 15.8561C135.334 15.8561 133.362 17.4342 132.31 21.0287V16.3821H128.452V36.8532H132.31V29.3574C132.31 23.9656 133.932 19.5383 138.008 19.5383C138.797 19.5383 139.893 19.7136 140.989 20.2396L141.603 16.6451C140.989 16.2506 139.499 15.8561 138.052 15.8561Z" fill="black"/>
<path d="M158.536 11.3849C160.026 11.3849 161.253 10.289 161.253 8.84244C161.253 7.39587 160.026 6.29999 158.536 6.29999C157.089 6.29999 155.862 7.39587 155.862 8.84244C155.862 10.289 157.089 11.3849 158.536 11.3849ZM160.464 36.8532V16.3821H156.651V36.8532H160.464Z" fill="black"/>
<path d="M177.485 15.8561C175.249 15.8561 171.918 16.9958 170.69 19.4944V16.3821H166.877V36.8532H170.69V25.7629C170.69 21.3355 174.109 19.6259 176.959 19.6259C179.808 19.6259 181.912 21.8177 181.912 25.2368V36.8532H185.726V25.0177C185.77 19.2752 182.57 15.8561 177.485 15.8561Z" fill="black"/>
<path d="M197.006 16.3821V8.66709H193.192V16.3821H189.51V19.6698H193.192V36.8532H197.006V19.6698H201.434V16.3821H197.006Z" fill="black"/>
<path d="M224.382 26.5519C224.382 20.0643 220.043 15.8561 214.213 15.8561C208.382 15.8561 203.692 20.0643 203.692 26.5519C203.692 33.0395 208.382 37.3792 214.213 37.3792C218.158 37.3792 221.84 35.4505 223.593 31.8998L220.306 30.5848C219.122 32.645 216.843 33.7847 214.344 33.7847C210.837 33.7847 208.207 31.8998 207.637 28.2615H224.295C224.339 27.6916 224.382 27.1218 224.382 26.5519ZM207.681 24.9738C208.295 21.2917 210.75 19.4506 214.213 19.4506C217.588 19.4506 220.086 21.467 220.569 24.9738H207.681Z" fill="black"/>
<path d="M238.961 15.8561C236.243 15.8561 234.27 17.4342 233.218 21.0287V16.3821H229.361V36.8532H233.218V29.3574C233.218 23.9656 234.84 19.5383 238.917 19.5383C239.706 19.5383 240.802 19.7136 241.898 20.2396L242.511 16.6451C241.898 16.2506 240.407 15.8561 238.961 15.8561Z" fill="black"/>
<path d="M254.028 31.9875L247.715 16.3821H243.639L252.143 36.8532H255.869L264.417 16.3821H260.296L254.028 31.9875Z" fill="black"/>
<path d="M270.067 11.3849C271.558 11.3849 272.785 10.289 272.785 8.84244C272.785 7.39587 271.558 6.29999 270.067 6.29999C268.621 6.29999 267.393 7.39587 267.393 8.84244C267.393 10.289 268.621 11.3849 270.067 11.3849ZM271.996 36.8532V16.3821H268.182V36.8532H271.996Z" fill="black"/>
<path d="M297.74 26.5519C297.74 20.0643 293.4 15.8561 287.57 15.8561C281.74 15.8561 277.049 20.0643 277.049 26.5519C277.049 33.0395 281.74 37.3792 287.57 37.3792C291.515 37.3792 295.197 35.4505 296.951 31.8998L293.663 30.5848C292.479 32.645 290.2 33.7847 287.701 33.7847C284.195 33.7847 281.564 31.8998 280.995 28.2615H297.652C297.696 27.6916 297.74 27.1218 297.74 26.5519ZM281.038 24.9738C281.652 21.2917 284.107 19.4506 287.57 19.4506C290.945 19.4506 293.444 21.467 293.926 24.9738H281.038Z" fill="black"/>
<path d="M323.24 30.9354L317.98 16.3821H314.254L309.038 30.9354L303.821 16.3821H299.701L307.503 36.8532H310.659L316.095 21.6423L321.75 36.8532H324.95L332.577 16.3821H328.457L323.24 30.9354Z" fill="black"/>
<path d="M342.066 37.3792C346.318 37.3792 350 34.9683 350 31.1546C350 28.8313 348.904 26.2889 344.652 25.2368L341.627 24.4916C340.312 24.1848 338.997 23.4396 338.997 22.0369C338.997 20.4588 340.312 19.1876 342.285 19.1876C343.907 19.1876 345.529 20.2396 345.573 21.8177H349.255C349.255 17.6972 345.66 15.8561 342.197 15.8561C338.077 15.8561 335.184 18.53 335.184 21.9054C335.184 25.193 337.156 26.8588 340.575 27.7793L343.381 28.4368C345.003 28.7875 346.186 29.5765 346.186 31.1108C346.186 32.7765 344.652 34.0477 342.066 34.0477C339.567 34.0477 338.033 32.6012 337.989 30.8478H334.438C334.614 35.056 338.384 37.3792 342.066 37.3792Z" fill="black"/>
</svg>
