<svg width="126" height="126" viewBox="0 0 126 126" fill="none" xmlns="http://www.w3.org/2000/svg">
<path d="M62.6218 31.3109C62.6218 14.0184 76.6402 0 93.9328 0C111.225 0 125.244 14.0184 125.244 31.3109C125.244 48.6035 111.225 62.6219 93.9328 62.6219C76.6402 62.6219 62.6218 48.6035 62.6218 31.3109Z" fill="#158D71"/>
<path d="M0 62.6219H62.6219V93.9328C62.6219 111.225 48.6035 125.244 31.3109 125.244C14.0184 125.244 0 111.225 0 93.9328V62.6219Z" fill="#158D71"/>
<path d="M62.6218 93.9328C62.6218 76.6403 76.6402 62.6219 93.9328 62.6219C111.225 62.6219 125.244 76.6403 125.244 93.9328V125.244H62.6218V93.9328Z" fill="#011936"/>
<path d="M0 31.3109C0 14.0184 14.0184 0 31.3109 0C48.6035 0 62.6219 14.0184 62.6219 31.3109C62.6219 48.6035 48.6035 62.6219 31.3109 62.6219C14.0184 62.6219 0 48.6035 0 31.3109Z" fill="#011936"/>
</svg>
