<svg width="14" height="21" viewBox="0 0 14 21" fill="none" xmlns="http://www.w3.org/2000/svg">
<path d="M3.50076 21C5.43238 21 7.00006 19.432 7.00006 17.5V14H3.50076C1.56915 14 0.00146484 15.568 0.00146484 17.5C0.00146484 19.432 1.56915 21 3.50076 21Z" fill="#0DC878"/>
<path d="M0.00146484 10.5C0.00146484 8.568 1.56915 7 3.50076 7H7.00006V14H3.50076C1.56915 14 0.00146484 12.432 0.00146484 10.5Z" fill="#984FFF"/>
<path d="M0.00244141 3.5C0.00244141 1.568 1.57013 0 3.50174 0H7.00104V7H3.50174C1.57013 7 0.00244141 5.432 0.00244141 3.5Z" fill="#F0451C"/>
<path d="M7 0H10.4993C12.4309 0 13.9986 1.568 13.9986 3.5C13.9986 5.432 12.4309 7 10.4993 7H7V0Z" fill="#FF6757"/>
<path d="M13.9986 10.5C13.9986 12.432 12.4309 14 10.4993 14C8.56769 14 7 12.432 7 10.5C7 8.568 8.56769 7 10.4993 7C12.4309 7 13.9986 8.568 13.9986 10.5Z" fill="#19B4FE"/>
</svg>
